<?xml version="1.0" standalone="no"?>
<!DOCTYPE svg PUBLIC "-//W3C//DTD SVG 20010904//EN"
 "http://www.w3.org/TR/2001/REC-SVG-20010904/DTD/svg10.dtd">
<svg version="1.0" xmlns="http://www.w3.org/2000/svg"
 width="1172.000000pt" height="1172.000000pt" viewBox="0 0 1172.000000 1172.000000"
 preserveAspectRatio="xMidYMid meet">
<metadata>
Created by potrace 1.11, written by Peter Selinger 2001-2013
</metadata>
<g transform="translate(0.000000,1172.000000) scale(0.100000,-0.100000)"
fill="#000000" stroke="none">
<path d="M2339 11716 c-2 -2 -33 -7 -69 -10 -59 -6 -133 -17 -215 -31 -269
-47 -631 -194 -880 -356 -250 -163 -430 -326 -634 -574 -83 -102 -207 -299
-284 -453 -84 -167 -181 -456 -211 -627 -3 -16 -8 -39 -10 -51 -2 -12 -7 -45
-11 -75 -4 -30 -11 -81 -15 -114 -10 -74 -8 -7140 2 -7174 4 -14 10 -45 13
-70 3 -25 7 -57 10 -71 3 -14 8 -38 11 -55 11 -65 57 -234 86 -320 50 -150
116 -296 207 -460 34 -59 168 -259 194 -287 12 -13 35 -42 51 -64 31 -40 253
-265 316 -319 282 -243 652 -433 1019 -525 157 -39 230 -52 376 -67 100 -10
7035 -10 7130 0 39 4 79 9 90 11 11 2 43 7 70 10 28 4 78 13 111 21 34 8 73
16 85 19 61 12 244 72 340 111 186 76 421 205 538 295 415 319 683 657 865
1092 59 141 124 349 141 448 3 19 10 58 15 85 11 55 16 94 27 200 4 39 8 1649
8 3580 0 2811 -3 3527 -13 3595 -7 47 -15 99 -17 115 -39 272 -165 614 -328
885 -188 315 -469 608 -784 821 -40 27 -75 49 -79 49 -4 0 -15 6 -23 14 -21
18 -221 122 -285 148 -254 103 -465 162 -656 184 -30 3 -75 10 -100 15 -43 8
-7082 13 -7091 5z"/>
</g>
</svg>
